HIERARCHY
ROOT hip
{
	OFFSET 0.000000 0.000000 0.000000 
	CHANNELS 6 Xposition Yposition Zposition Xrotation Zrotation Yrotation
	JOINT abdomen
	{
		OFFSET 0.000000 3.402643 0.000000 
		CHANNELS 3 Xrotation Zrotation Yrotation
		JOINT chest
		{
			OFFSET 0.000000 8.438565 -0.680529 
			CHANNELS 3 Xrotation Zrotation Yrotation
			JOINT neck
			{
				OFFSET 0.000000 10.207942 -0.272212 
				CHANNELS 3 Xrotation Zrotation Yrotation
				JOINT head
				{
					OFFSET 0.000000 3.130431 0.000000 
					CHANNELS 3 Xrotation Zrotation Yrotation
					End Site
					{
						OFFSET 0.000000 3.130435 0.000000 
					}
				}
			}
			JOINT lCollar
			{
				OFFSET 3.470700 6.669187 -0.816635 
				CHANNELS 3 Yrotation Zrotation Xrotation
				JOINT lShldr
				{
					OFFSET 3.198488 0.000000 0.000000 
					CHANNELS 3 Zrotation Yrotation Xrotation
					JOINT lForeArm
					{
						OFFSET 10.139888 0.000000 0.000000 
						CHANNELS 3 Yrotation Zrotation Xrotation
						JOINT lHand
						{
							OFFSET 8.370511 0.000000 0.000000 
							CHANNELS 3 Zrotation Yrotation Xrotation
							End Site
							{
								OFFSET 4.083176 0.000000 0.000000 
							}
						}
					}
				}
			}
			JOINT rCollar
			{
				OFFSET -3.470700 6.669187 -0.816635 
				CHANNELS 3 Yrotation Zrotation Xrotation
				JOINT rShldr
				{
					OFFSET -3.198488 0.000000 0.000000 
					CHANNELS 3 Zrotation Yrotation Xrotation
					JOINT rForeArm
					{
						OFFSET -10.139888 0.000000 0.000000 
						CHANNELS 3 Yrotation Zrotation Xrotation
						JOINT rHand
						{
							OFFSET -8.370511 0.000000 0.000000 
							CHANNELS 3 Zrotation Yrotation Xrotation
							End Site
							{
								OFFSET -4.083176 0.000000 0.000000 
							}
						}
					}
				}
			}
		}
	}
	JOINT lThigh
	{
		OFFSET 5.308129 -1.633274 1.361059 
		CHANNELS 3 Xrotation Zrotation Yrotation
		JOINT lShin
		{
			OFFSET -2.041588 -20.007561 0.000000 
			CHANNELS 3 Xrotation Zrotation Yrotation
			JOINT lFoot
			{
				OFFSET 0.000000 -19.190928 -1.224953 
				CHANNELS 3 Xrotation Yrotation Zrotation
				End Site
				{
					OFFSET 0.000000 -2.449906 4.627600 
				}
			}
		}
	}
	JOINT rThigh
	{
		OFFSET -5.308129 -1.633274 1.361059 
		CHANNELS 3 Xrotation Zrotation Yrotation
		JOINT rShin
		{
			OFFSET 2.041588 -20.007561 0.000000 
			CHANNELS 3 Xrotation Zrotation Yrotation
			JOINT rFoot
			{
				OFFSET 0.000000 -19.190928 -1.224953 
				CHANNELS 3 Xrotation Yrotation Zrotation
				End Site
				{
					OFFSET 0.000000 -2.449906 4.627600 
				}
			}
		}
	}
}
MOTION
Frames: 20
Frame Time: 0.016667
-16.881514 56.165493 10.722233 8.081010 10.328400 43.090000 -22.901100 9.852730 2.418930 12.772900 11.119900 1.907920 -2.061190 7.178380 8.765660 7.049450 9.082810 5.450090 2.000000 -2.000000 0.000000 45.596100 -26.616199 63.236599 12.549000 -0.348298 0.029766 0.079910 0.090619 -98.191399 -2.000000 2.000000 0.000000 38.121601 1.231800 167.054001 -73.867699 0.252837 0.131340 -0.055819 0.021295 -144.548996 -10.221990 -12.589262 -2.034687 17.414757 2.181569 1.627101 10.999081 7.408730 -1.805687 -15.394009 -17.465345 -0.117233 46.658260 -2.908797 -2.985981 -7.775329 -20.702822 -4.015601 
-16.765469 55.292683 10.597616 7.923000 9.964510 41.370899 -22.792000 9.865660 2.453300 12.684700 11.069200 1.897540 -2.347920 7.791900 9.073360 6.894320 9.386760 5.664950 2.000000 -2.000000 0.000000 46.097099 -27.639601 53.724300 12.431800 -0.348358 0.029493 0.095713 0.107638 -89.890602 -2.000000 2.000000 0.000000 40.563099 -0.116829 167.470001 -69.688004 0.262308 0.128221 -0.056136 0.023543 -145.358994 -11.436323 -11.029313 -2.627703 19.090178 2.264342 1.703808 10.661324 6.067444 -1.390096 -15.707367 -16.241692 0.610131 45.373470 -2.925272 -2.944582 -3.613480 -19.755249 -2.509623 
-16.649311 54.419872 10.472988 7.785240 9.590200 39.665501 -22.673000 9.879110 2.487320 12.606400 11.018800 1.898930 -2.636440 8.396830 9.395270 6.739000 9.690710 5.879800 2.000000 -2.000000 0.000000 46.771801 -28.581499 44.104198 12.314600 -0.348418 0.029220 0.113807 0.122197 -81.589798 -2.000000 2.000000 0.000000 42.994999 -1.484880 167.837997 -65.508301 0.271527 0.124421 -0.056490 0.025812 -146.179993 -12.752336 -9.508125 -3.258183 20.880150 2.376424 1.795743 10.340103 4.736888 -1.009610 -15.973418 -15.020928 1.326607 44.049461 -2.931471 -2.889081 0.514441 -18.735765 -1.083025 
-16.552477 53.282349 10.332600 7.709610 9.311100 37.876701 -22.491600 9.760260 2.669000 12.481100 10.870300 1.935780 -3.179950 8.737060 9.448040 6.581640 9.809320 5.964410 2.000000 -2.000000 0.000000 46.983200 -28.643900 40.700901 12.666200 -0.348236 0.030039 0.116662 0.124127 -80.359398 -2.000000 2.000000 0.000000 45.426601 -2.372700 167.475006 -61.299301 0.280505 0.119925 -0.057388 0.030819 -147.996002 -14.032578 -7.989296 -3.578394 23.363461 2.450196 1.939792 10.510774 3.030044 -0.602180 -16.353912 -13.942422 1.387365 43.032375 -2.895626 -2.852078 5.705882 -17.198090 0.379898 
-16.455753 52.144688 10.192210 7.644160 9.031700 36.090199 -22.320499 9.636980 2.840990 12.355900 10.721900 1.981180 -3.715020 9.067120 9.506960 6.414170 9.918210 6.047940 2.000000 -2.000000 0.000000 47.203999 -28.705999 37.302399 13.008000 -0.348055 0.030834 0.119557 0.125995 -79.128899 -2.000000 2.000000 0.000000 47.858101 -3.240930 167.082001 -57.080601 0.289149 0.114769 -0.058444 0.035794 -149.811996 -15.384835 -6.478455 -3.940954 25.943598 2.514227 2.063437 10.669271 1.366773 -0.177452 -16.651396 -12.850137 1.437254 41.976643 -2.857899 -2.825195 10.803419 -15.537893 1.709624 
-16.397560 50.733574 10.030813 7.907920 9.326120 34.522301 -22.083900 9.248710 3.084670 12.207600 10.689000 2.016700 -4.536680 9.265520 9.520590 6.156670 9.949730 6.112700 2.000000 -2.000000 0.000000 46.669300 -28.049000 41.136398 13.818500 -0.347607 0.032716 0.105458 0.116013 -85.300797 -2.000000 2.000000 0.000000 50.015800 -3.834350 166.093994 -52.832500 0.297446 0.108950 -0.058914 0.037790 -150.544998 -16.718775 -5.600550 -3.414469 28.945057 2.494173 2.269328 11.450680 -2.980047 0.768680 -16.968847 -12.483130 0.652326 42.365868 -2.764943 -2.852927 8.918610 -14.480473 1.091284 
-16.339369 49.322327 9.869440 8.172330 9.619980 32.947300 -21.849501 8.868110 3.321630 12.059700 10.646300 2.042220 -5.359280 9.461130 9.528910 5.899200 9.990830 6.167740 2.000000 -2.000000 0.000000 46.183102 -27.362200 44.936501 14.629100 -0.347132 0.034590 0.092514 0.104574 -91.472603 -2.000000 2.000000 0.000000 52.193100 -4.388640 165.076996 -48.584400 0.305289 0.102532 -0.059410 0.039781 -151.276993 -18.070024 -4.720148 -2.887819 32.010895 2.477541 2.443974 12.273731 -7.293374 1.777362 -17.335110 -12.114395 -0.120413 42.795761 -2.665360 -2.915698 7.069416 -13.384768 0.515090 
-16.340382 47.784115 9.668826 8.338510 9.528990 31.712500 -21.637699 8.461360 3.489380 11.959100 10.334300 2.070100 -6.422830 9.643280 9.539990 5.532520 10.022700 6.221290 2.000000 -2.000000 0.000000 45.904301 -26.487200 47.305698 15.342000 -0.346692 0.036234 0.085004 0.096661 -95.369102 -2.000000 2.000000 0.000000 54.476799 -4.715560 162.850006 -44.658600 0.312096 0.096099 -0.059505 0.040151 -151.414001 -19.583441 -3.634061 -2.686937 35.335258 2.401998 2.662385 12.473357 -12.288170 2.927464 -17.833546 -11.642348 -1.028521 45.161537 -2.471587 -3.059298 -2.187020 -8.588334 -0.968333 
-16.341505 46.245785 9.468235 8.504630 9.438000 30.477100 -21.436701 8.047350 3.664640 11.858400 10.022500 2.089290 -7.487730 9.830290 9.543530 5.175620 10.044400 6.285730 2.000000 -2.000000 0.000000 45.654701 -25.612000 49.650902 16.054899 -0.346232 0.037871 0.078050 0.088255 -99.265602 -2.000000 2.000000 0.000000 56.770100 -4.954640 160.613007 -40.723099 0.318462 0.089198 -0.059595 0.040495 -151.541000 -21.047249 -2.554242 -2.499039 38.577465 2.319672 2.834880 12.820028 -17.262882 4.130259 -18.294989 -11.171442 -1.950605 47.506866 -2.278041 -3.232409 -11.248863 -3.616059 -1.621108 
-16.248377 44.873989 9.201589 7.765270 8.680670 29.119699 -21.080900 8.196870 3.869300 11.689600 9.284220 2.192600 -9.065240 9.437360 9.781850 4.560040 9.861660 6.381820 2.000000 -2.000000 0.000000 44.260700 -24.845400 52.908298 17.216999 -0.345438 0.040528 0.070213 0.077156 -104.119003 -2.000000 2.000000 0.000000 58.514702 -5.541210 156.501007 -37.959400 0.322642 0.084098 -0.059917 0.041711 -151.990005 -22.042721 -1.073758 -3.295676 42.357037 2.226974 3.024142 12.218409 -19.707468 4.506995 -19.119074 -10.135696 -1.656638 50.064651 -2.083613 -3.379662 -16.754742 -1.313669 -1.108638 
-16.155136 43.502193 8.934920 7.039960 7.909440 27.760799 -20.734501 8.346060 4.072450 11.510000 8.546320 2.297450 -10.639400 9.057510 10.030900 3.945140 9.677770 6.481800 2.000000 -2.000000 0.000000 42.915401 -24.019800 56.126400 18.379101 -0.344590 0.043168 0.063343 0.065434 -108.973000 -2.000000 2.000000 0.000000 60.287800 -6.001070 152.369003 -35.185902 0.326585 0.078783 -0.060249 0.042925 -152.438995 -22.940130 0.397192 -4.125159 45.960831 2.101737 3.224367 11.656761 -22.165342 4.846240 -20.008150 -9.097576 -1.367757 52.680668 -1.873349 -3.534852 -22.264624 0.952177 -0.378025 
-15.864853 42.409893 8.699528 6.761200 7.108930 26.378500 -20.532200 8.983400 4.130950 11.527000 8.662510 2.350540 -10.890000 8.154120 10.614100 3.855410 9.316590 6.653670 2.000000 -2.000000 0.000000 39.154099 -22.975700 65.178497 20.927999 -0.342545 0.048895 0.052617 0.049991 -118.767998 -2.000000 2.000000 0.000000 60.604000 -6.654540 147.231995 -32.705399 0.329890 0.073874 -0.061429 0.046967 -153.942993 -23.684206 0.867622 -4.160265 49.429344 1.894401 3.408915 2.828312 -22.688904 1.411879 -21.576193 -8.739416 -1.934833 55.413319 -1.655686 -3.698358 -26.614248 1.215965 -0.152685 
-15.574572 41.317596 8.464123 6.504500 6.316830 25.006800 -20.341600 9.618270 4.183280 11.544200 8.769080 2.414990 -11.152000 7.261560 11.203600 3.755980 8.965180 6.815300 2.000000 -2.000000 0.000000 35.655499 -21.420500 74.054497 23.486601 -0.340238 0.054547 0.046332 0.013533 -128.572006 -2.000000 2.000000 0.000000 60.987701 -7.289050 142.085007 -30.215200 0.332991 0.068805 -0.072471 0.050952 -155.436996 -24.489845 1.319823 -4.204244 52.935223 1.683517 3.592441 -6.033957 -22.717806 -2.074581 -23.151747 -8.394642 -2.529326 58.055878 -1.426818 -3.823931 -30.874897 1.498969 0.117371 
-15.269348 40.555054 8.264834 6.485590 6.375290 24.239799 -20.320999 9.925700 4.083710 11.213500 9.320290 2.302940 -11.372400 7.005900 11.462900 3.666760 8.750440 6.890830 2.000000 -2.000000 0.000000 33.673000 -20.719700 77.964699 24.502199 -0.339253 0.056760 0.045081 0.011993 -132.634995 -2.000000 2.000000 0.000000 61.602402 -8.361080 135.414001 -29.433901 0.333918 0.067188 -0.074040 0.055415 -157.126999 -24.757471 0.402270 -3.567344 55.342583 1.481880 3.719773 -12.862153 -17.614517 -3.444307 -24.584621 -8.902217 -2.145221 60.833679 -1.224849 -3.954076 -33.255463 1.617511 0.247219 
-14.964351 39.792377 8.065535 6.466680 6.433760 23.472700 -20.311001 10.232800 3.983140 10.880800 9.870190 2.194470 -11.603100 6.760600 11.730500 3.587510 8.535690 6.968460 2.000000 -2.000000 0.000000 31.768700 -19.900999 81.825996 25.517900 -0.338228 0.058956 0.044634 0.000601 -136.707001 -2.000000 2.000000 0.000000 62.332802 -9.366010 128.725998 -28.652700 0.334823 0.065558 -0.075729 0.059804 -158.806000 -25.131941 -0.491267 -2.922227 57.807987 1.280688 3.852149 -19.364859 -12.388287 -4.145786 -25.981703 -9.401361 -1.740663 63.669010 -1.019801 -4.063019 -35.724888 1.695989 0.415569 
-14.570156 39.458767 7.953320 6.106950 5.923470 22.732901 -20.318800 10.523600 3.698390 10.850800 10.206500 2.044860 -11.863700 6.898770 11.699300 3.508450 8.447860 6.947880 2.000000 -2.000000 0.000000 31.387800 -19.881399 81.845497 25.410400 -0.338338 0.058725 0.044658 -0.002844 -137.936996 -2.000000 2.000000 0.000000 63.192600 -10.765300 123.774002 -29.951500 0.333306 0.068261 -0.081189 0.071918 -163.552994 -24.517412 -0.860435 -3.873127 58.081421 1.296073 3.860317 -22.986828 -9.037961 -3.484695 -26.616879 -9.019474 -1.245262 65.130859 -0.903036 -4.115439 -36.609932 0.404113 -0.591516 
-14.176186 39.125179 7.841117 5.748280 5.402550 21.988701 -20.326700 10.817900 3.422810 10.820100 10.552400 1.891570 -12.134400 7.036150 11.664100 3.429420 8.369790 6.927440 2.000000 -2.000000 0.000000 31.016600 -19.861900 81.874802 25.312799 -0.338438 0.058514 0.044756 -0.006289 -139.167999 -2.000000 2.000000 0.000000 64.178703 -12.077400 118.775002 -31.240601 0.331741 0.070909 -0.087617 0.093280 -168.289001 -23.906363 -1.200033 -4.823012 58.276764 1.284176 3.846915 -26.537588 -5.700488 -2.625566 -27.199102 -8.634328 -0.754925 66.544113 -0.779012 -4.169306 -37.533875 -0.886010 -1.630457 
-13.727843 39.308933 7.878986 5.484150 5.482760 22.156799 -20.502300 10.915400 2.899720 10.960900 11.115800 1.640180 -11.944600 7.173340 11.508700 3.498510 8.359980 6.849580 2.000000 -2.000000 0.000000 31.448601 -21.150700 81.034401 24.805000 -0.338951 0.057417 0.044844 -0.008228 -139.860992 -2.000000 2.000000 0.000000 64.205498 -14.429300 117.327003 -32.305000 0.330403 0.073068 -0.080958 0.088409 -170.358994 -21.809566 -2.379080 -6.032777 55.391449 1.477664 3.716239 -27.632582 -2.920377 -1.288121 -26.254280 -9.155426 -0.748598 65.649551 -0.895202 -4.126504 -36.589638 0.234102 -0.801161 
-13.279502 39.492691 7.916867 5.219960 5.562920 22.314501 -20.676701 11.015800 2.384360 11.091000 11.688900 1.386250 -11.754800 7.310640 11.355500 3.557730 8.359940 6.779980 2.000000 -2.000000 0.000000 31.910000 -22.429600 80.174400 24.287399 -0.339464 0.056293 0.044956 -0.010167 -140.554993 -2.000000 2.000000 0.000000 64.310402 -16.771500 115.859001 -33.369499 0.329026 0.075202 179.916000 179.906998 7.560760 -19.714466 -3.503188 -7.273053 52.642208 1.671421 3.585875 -28.915773 -0.176114 0.095609 -25.325180 -9.685943 -0.719672 64.774757 -0.998105 -4.082174 -35.688690 1.367711 -0.002142 
-12.773643 40.262962 8.041865 4.811790 6.023770 21.873600 -20.745600 11.012300 2.123480 11.490300 11.981800 1.316340 -10.987300 7.573110 11.280400 3.854040 8.476760 6.773390 2.000000 -2.000000 0.000000 32.778301 -23.631001 80.564499 24.004200 -0.339741 0.055677 0.044995 -0.010767 -140.768997 -2.000000 2.000000 0.000000 63.785801 -19.067301 116.716003 -33.291401 0.329128 0.075046 -0.089002 0.095510 -169.225998 -16.747559 -4.685702 -7.380602 48.310703 1.933248 3.348386 -26.880991 1.485297 0.883433 -23.506054 -10.523088 -0.642097 62.180691 -1.263172 -3.945044 -32.263420 2.695772 0.628208 
